<?xml version="1.0"?>
<svg xmlns="http://www.w3.org/2000/svg" height="512px" viewBox="0 -12 495.99658 495" width="512px" class=""><g><path d="m463.925781 242.996094c-3.09375-119.253906-102.273437-213.417969-221.527343-210.328125-119.253907 3.09375-213.417969 102.277343-210.328126 221.527343 3.09375 119.253907 102.273438 213.421876 221.527344 210.328126 119.253906-3.089844 213.421875-102.273438 210.328125-221.527344zm-211.199219 189.503906c-101.585937 2.617188-186.058593-77.613281-188.679687-179.199219-2.617187-101.585937 77.613281-186.058593 179.199219-188.679687 101.585937-2.617188 186.0625 77.613281 188.679687 179.199218 2.636719 101.59375-77.589843 186.085938-179.183593 188.710938zm0 0" fill="#57a4ff" data-original="#57A4FF" class="active-path" style="fill:#09090A" data-old_color="#57A4FF"/><g fill="#004fac"><path d="m410.398438 402.851562c83.390624-89.945312 78.933593-230.230468-9.996094-314.703124-88.933594-84.472657-229.261719-81.710938-314.804688 6.191406-61.644531 64.910156-78.726562 160.289062-43.4375 242.558594 35.289063 82.269531 116.167969 135.628906 205.6875 135.699218 1.964844 0 3.949219 0 5.925782-.082031 59.417968-1.371094 115.816406-26.457031 156.625-69.664063zm-157.039063 53.671876c-74.539063 2.316406-144.613281-35.445313-183.664063-98.976563-39.050781-63.53125-41.105468-143.109375-5.378906-208.566406 35.726563-65.460938 103.761719-106.785157 178.320313-108.3125 1.839843-.046875 3.675781-.070313 5.503906-.070313 83.113281.070313 158.203125 49.609375 190.972656 125.988282 32.773438 76.378906 16.929688 164.933593-40.289062 225.210937-37.898438 40.140625-90.277344 63.449219-145.464844 64.726563zm0 0" data-original="#000000" class="" style="fill:#FFFFFF" data-old_color="#ffffff"/><path d="m380.214844 109.398438c-49.542969-48.304688-121.242188-66.214844-187.679688-46.882813s-117.332031 72.917969-133.222656 140.261719 5.683594 138.027344 56.46875 185.019531c35.570312 33.980469 82.898438 52.898437 132.089844 52.800781 1.6875 0 3.382812 0 5.078125-.066406 77.621093-2.011719 146.390625-50.578125 174.246093-123.054688 27.855469-72.480468 9.3125-154.601562-46.980468-208.078124zm-4.601563 260.398437c-54.855469 57.757813-141.667969 71.472656-211.660156 33.433594-69.988281-38.035157-105.703125-118.34375-87.074219-195.792969 18.625-77.449219 86.953125-132.730469 166.582032-134.785156 1.554687 0 3.105468-.054688 4.65625-.054688 70.339843.046875 133.894531 41.972656 161.625 106.613282 27.730468 64.640624 14.308593 139.582031-34.128907 190.585937zm0 0" data-original="#000000" class="" style="fill:#FFFFFF" data-old_color="#ffffff"/><path d="m8 144.597656c2.121094 0 4.15625-.84375 5.652344-2.34375l128-128c2.082031-2.011718 2.914062-4.984375 2.183594-7.78125-.730469-2.796875-2.917969-4.980468-5.714844-5.714844-2.796875-.7304682-5.769532.101563-7.777344 2.183594l-128 128c-2.2890625 2.289063-2.972656 5.726563-1.734375 8.714844 1.238281 2.992188 4.152344 4.941406 7.390625 4.941406zm0 0" data-original="#000000" class="" style="fill:#FFFFFF" data-old_color="#ffffff"/><path d="m488 144.597656c3.234375 0 6.148438-1.949218 7.386719-4.941406 1.238281-2.988281.554687-6.425781-1.734375-8.714844l-128-128c-3.136719-3.0312498-8.125-2.988281-11.210938.097656-3.085937 3.085938-3.132812 8.074219-.097656 11.214844l128 128c1.5 1.5 3.53125 2.34375 5.65625 2.34375zm0 0" data-original="#000000" class="" style="fill:#FFFFFF" data-old_color="#ffffff"/><path d="m336 240.597656h-80v-80c0-4.417968-3.582031-8-8-8-4.421875 0-8 3.582032-8 8v80h-80c-4.421875 0-8 3.582032-8 8 0 4.417969 3.578125 8 8 8h80v80c0 4.417969 3.578125 8 8 8 4.417969 0 8-3.582031 8-8v-80h80c4.417969 0 8-3.582031 8-8 0-4.417968-3.582031-8-8-8zm0 0" data-original="#000000" class="" style="fill:#FFFFFF" data-old_color="#ffffff"/></g></g> </svg>
